<svg width="25" height="23" viewBox="0 0 25 23" fill="none" xmlns="http://www.w3.org/2000/svg">
<path d="M0.896307 21.9999V0.181756H9.50426C11.1591 0.181756 12.5689 0.497808 13.7337 1.12991C14.8984 1.75491 15.7862 2.62494 16.397 3.73999C17.0149 4.84795 17.3239 6.12636 17.3239 7.57522C17.3239 9.02409 17.0114 10.3025 16.3864 11.4104C15.7614 12.5184 14.8558 13.3813 13.6697 13.9992C12.4908 14.6171 11.0632 14.9261 9.38707 14.9261H3.90057V11.2293H8.64134C9.52912 11.2293 10.2607 11.0766 10.8359 10.7712C11.4183 10.4587 11.8516 10.0291 12.1357 9.48218C12.4268 8.92821 12.5724 8.29255 12.5724 7.57522C12.5724 6.85079 12.4268 6.21869 12.1357 5.67892C11.8516 5.13204 11.4183 4.70946 10.8359 4.41116C10.2536 4.10576 9.51491 3.95306 8.62003 3.95306H5.50923V21.9999H0.896307ZM21.8622 22.2769C21.1591 22.2769 20.5554 22.0283 20.0511 21.5312C19.554 21.0269 19.3054 20.4232 19.3054 19.7201C19.3054 19.0241 19.554 18.4275 20.0511 17.9303C20.5554 17.4332 21.1591 17.1846 21.8622 17.1846C22.544 17.1846 23.1406 17.4332 23.652 17.9303C24.1634 18.4275 24.419 19.0241 24.419 19.7201C24.419 20.1889 24.2983 20.6185 24.0568 21.0092C23.8224 21.3927 23.5135 21.7016 23.13 21.936C22.7464 22.1633 22.3239 22.2769 21.8622 22.2769Z" fill="white"/>
</svg>
